<svg width="47" height="48" viewBox="0 0 47 48" fill="none" xmlns="http://www.w3.org/2000/svg">
<path d="M38.0039 12.1766C37.9496 12.1766 37.9044 12.1947 37.8592 12.1947C37.9587 11.7229 38.0039 11.2329 38.0039 10.7248C38.0039 6.71432 34.7656 3.46601 30.7676 3.46601C28.5424 3.46601 26.5796 4.49132 25.2499 6.07918C23.5674 2.81272 20.2116 0.5625 16.2949 0.5625C10.6958 0.5625 6.16406 5.10831 6.16406 10.7248C6.16406 11.3872 6.23643 12.0223 6.35402 12.6484C2.88962 13.7916 0.375 17.0309 0.375 20.8871C0.375 25.696 4.26453 29.5976 9.05859 29.5976H38.0039C42.798 29.5976 46.6875 25.696 46.6875 20.8871C46.6875 16.0782 42.798 12.1766 38.0039 12.1766ZM8.33496 34.5155C7.17715 38.5441 4.7168 39.6329 4.7168 42.4729C4.7168 44.9863 6.66156 47.0187 9.05859 47.0187C11.4556 47.0187 13.4004 44.9863 13.4004 42.4729C13.4004 39.6238 10.94 38.5622 9.78223 34.5155C9.58323 33.7805 8.5611 33.7442 8.33496 34.5155ZM22.8076 34.5155C21.6498 38.5441 19.1895 39.6329 19.1895 42.4729C19.1895 44.9863 21.1342 47.0187 23.5312 47.0187C25.9283 47.0187 27.873 44.9863 27.873 42.4729C27.873 39.6238 25.4127 38.5622 24.2549 34.5155C24.0559 33.7805 23.0338 33.7442 22.8076 34.5155ZM37.2803 34.5155C36.1225 38.5441 33.6621 39.6329 33.6621 42.4729C33.6621 44.9863 35.6069 47.0187 38.0039 47.0187C40.4009 47.0187 42.3457 44.9863 42.3457 42.4729C42.3457 39.6238 39.8854 38.5622 38.7275 34.5155C38.5285 33.7805 37.5064 33.7442 37.2803 34.5155Z" fill="black"/>
</svg>
