<svg width="47" height="48" viewBox="0 0 47 48" fill="none" xmlns="http://www.w3.org/2000/svg">
<path d="M23.5312 0.824219C10.7374 0.824219 0.375 11.2188 0.375 24.0523C0.375 36.8859 10.7374 47.2805 23.5312 47.2805C36.3251 47.2805 46.6875 36.8859 46.6875 24.0523C46.6875 11.2188 36.3251 0.824219 23.5312 0.824219ZM23.5312 6.63125C25.4416 6.63125 27.2362 7.15388 28.973 7.73458C27.7573 8.89599 26.3679 9.94125 26.5995 10.9865C26.831 12.0318 30.5939 11.7414 30.5939 13.89C30.5939 15.4579 28.1625 15.9225 29.8413 17.7227C31.8675 19.7551 26.1363 23.4136 26.0205 26.0848C25.8469 30.9046 30.8834 31.7176 34.8778 31.7176C37.3092 31.7176 37.946 32.879 37.7723 34.2727C34.6463 38.7441 29.3203 41.5315 23.4734 41.5315C21.2735 41.5315 19.2473 41.0089 17.337 40.2539C18.6105 37.6989 15.716 32.6467 12.9952 31.0208C11.6637 29.6852 8.82703 30.2078 7.20609 29.569C6.68508 28.0011 6.16406 26.4332 6.10617 24.6911C6.27984 24.4008 6.5693 24.1685 7.03242 24.1685C8.13234 24.1685 9.6375 26.3751 10.448 26.1429C11.49 25.9106 6.16406 18.5357 8.65336 17.0839C9.81117 16.3871 12.1268 19.3486 11.3742 16.1548C10.6795 13.1932 13.4583 14.5288 15.195 13.7739C16.7002 13.1351 17.8001 11.393 15.9476 10.3477C15.6002 10.1735 15.195 9.76704 14.674 9.24441C17.2791 7.67651 20.2894 6.68932 23.5312 6.68932V6.63125ZM36.904 12.9609C37.946 14.2385 38.7565 15.6321 39.4512 17.142V17.3162C39.2196 17.7227 38.8144 17.955 38.1776 18.5937C36.5566 20.2197 36.3251 17.3743 35.6304 16.7935C34.8778 16.0967 32.157 16.9097 31.8096 16.0386C31.4044 14.9934 34.7041 13.5997 36.904 12.9609Z" fill="black"/>
</svg>
