<svg width="47" height="47" viewBox="0 0 47 47" fill="none" xmlns="http://www.w3.org/2000/svg">
<path d="M23.7188 0.0585938C10.9213 0.0585938 0.5625 11.9315 0.5625 26.605V31.5825C0.562493 32.1987 0.712178 32.8028 0.994782 33.327C1.27739 33.8512 1.68174 34.2749 2.16254 34.5505L3.46354 35.2962C3.64545 41.5273 8.10827 46.5148 13.5879 46.5148H15.7588C16.9578 46.5148 17.9297 45.4006 17.9297 44.0261V25.7754C17.9297 24.4009 16.9578 23.2867 15.7588 23.2867H13.5879C10.7529 23.2867 8.1904 24.6222 6.35156 26.7737V26.605C6.35156 15.6267 14.1425 6.6952 23.7188 6.6952C33.295 6.6952 41.0859 15.6267 41.0859 26.605V26.7737C39.2471 24.6222 36.6846 23.2867 33.8496 23.2867H31.6787C30.4797 23.2867 29.5078 24.4009 29.5078 25.7754V44.0261C29.5078 45.4006 30.4797 46.5148 31.6787 46.5148H33.8496C39.3292 46.5148 43.7921 41.5272 43.974 35.2962L45.2749 34.5505C45.7557 34.2749 46.1601 33.8513 46.4427 33.327C46.7253 32.8028 46.875 32.1987 46.875 31.5825V26.605C46.875 11.9341 36.5184 0.0585938 23.7188 0.0585938Z" fill="black"/>
</svg>
