<svg width="33" height="34" viewBox="0 0 33 34" fill="none" xmlns="http://www.w3.org/2000/svg">
<path d="M31.288 0.62849C30.9672 -0.17945 30.0506 -0.211768 29.6668 0.550928C27.8908 4.03476 24.7113 6.20651 21.0792 6.20651H16.4961C10.4234 6.20651 5.4966 11.7651 5.4966 18.6165C5.4966 19.0689 5.54243 19.502 5.58253 19.9415C9.23756 16.9877 14.5139 14.4798 21.9958 14.4798C22.4999 14.4798 22.9124 14.9452 22.9124 15.514C22.9124 16.0828 22.4999 16.5481 21.9958 16.5481C7.59337 16.5481 1.48638 26.5084 0.134359 30.2508C-0.243748 31.3044 0.203105 32.5066 1.13691 32.9396C2.07645 33.3791 3.14202 32.8685 3.53159 31.8214C3.61752 31.5887 4.72893 28.7254 7.65066 25.9655C9.50682 28.803 13.0358 31.5112 17.6705 30.9553C26.6648 30.2185 32.9953 21.1178 32.9953 9.97474C32.9953 6.73005 32.3765 3.36902 31.288 0.62849Z" fill="black"/>
</svg>
