<svg width="15" height="14" viewBox="0 0 15 14" fill="none" xmlns="http://www.w3.org/2000/svg">
<path d="M0.535714 2.41071H14.4643C14.7602 2.41071 15 2.17088 15 1.875V0.535714C15 0.239833 14.7602 0 14.4643 0H0.535714C0.239833 0 0 0.239833 0 0.535714V1.875C0 2.17088 0.239833 2.41071 0.535714 2.41071ZM0.535714 7.76786H14.4643C14.7602 7.76786 15 7.52802 15 7.23214V5.89286C15 5.59698 14.7602 5.35714 14.4643 5.35714H0.535714C0.239833 5.35714 0 5.59698 0 5.89286V7.23214C0 7.52802 0.239833 7.76786 0.535714 7.76786ZM0.535714 13.125H14.4643C14.7602 13.125 15 12.8852 15 12.5893V11.25C15 10.9541 14.7602 10.7143 14.4643 10.7143H0.535714C0.239833 10.7143 0 10.9541 0 11.25V12.5893C0 12.8852 0.239833 13.125 0.535714 13.125Z" fill="white"/>
</svg>
