<svg width="54" height="50" viewBox="0 0 54 50" fill="none" xmlns="http://www.w3.org/2000/svg">
<path d="M52.9556 44.4366L29.1902 2.36107C28.7042 1.50078 27.8674 0.980469 26.9688 0.980469C26.0702 0.980469 25.2334 1.50078 24.7474 2.36107L0.981985 44.4366C0.72552 44.8906 0.581214 45.4148 0.564226 45.9542C0.547237 46.4936 0.658193 47.0283 0.885438 47.5021C1.11279 47.9757 1.44799 48.3709 1.85586 48.6462C2.26372 48.9216 2.72919 49.0668 3.20339 49.0667H50.7342C51.7005 49.0667 52.5892 48.4666 53.0521 47.5011C53.2794 47.0275 53.3903 46.493 53.3733 45.9538C53.3563 45.4145 53.212 44.8904 52.9556 44.4366ZM26.9688 9.54396L34.0151 22.0182H26.9688L21.6876 28.029L18.5469 24.4545L26.9688 9.54396Z" fill="black"/>
</svg>
