<svg width="18" height="17" viewBox="0 0 18 17" fill="none" xmlns="http://www.w3.org/2000/svg">
<path d="M7.65316 1.13865L8.54503 0.274445C8.92266 -0.0914816 9.53331 -0.0914816 9.90693 0.274445L17.7168 7.83822C18.0944 8.20415 18.0944 8.79586 17.7168 9.15789L9.90693 16.7256C9.52929 17.0915 8.91865 17.0915 8.54503 16.7256L7.65316 15.8613C7.27151 15.4915 7.27954 14.8881 7.66923 14.5261L12.5102 10.0571H0.964178C0.429863 10.0571 0 9.6406 0 9.12285V7.87715C0 7.3594 0.429863 6.94287 0.964178 6.94287H12.5102L7.66923 2.47389C7.27553 2.11186 7.26749 1.50847 7.65316 1.13865Z" fill="black"/>
</svg>
